<?xml version="1.0" encoding="utf-8"?>
<!-- Generator: Adobe Illustrator 16.0.0, SVG Export Plug-In . SVG Version: 6.00 Build 0)  -->
<!DOCTYPE svg PUBLIC "-//W3C//DTD SVG 1.1//EN" "http://www.w3.org/Graphics/SVG/1.1/DTD/svg11.dtd">
<svg version="1.1" id="Layer_1" xmlns="http://www.w3.org/2000/svg" xmlns:xlink="http://www.w3.org/1999/xlink" x="0px" y="0px"
	 width="48px" height="48px" viewBox="0 0 48 48" enable-background="new 0 0 48 48" xml:space="preserve">
<path fill="#333333" d="M35.997,16.559c-0.883,0.392-1.832,0.656-2.827,0.775c1.016-0.609,1.797-1.574,2.164-2.724
	c-0.951,0.564-2.005,0.974-3.126,1.195c-0.897-0.957-2.177-1.555-3.593-1.555c-2.719,0-4.923,2.204-4.923,4.922
	c0,0.386,0.044,0.762,0.127,1.122c-4.091-0.206-7.718-2.165-10.146-5.144c-0.424,0.727-0.667,1.573-0.667,2.475
	c0,1.708,0.869,3.215,2.19,4.098c-0.807-0.025-1.566-0.247-2.229-0.616c0,0.021,0,0.041,0,0.062c0,2.386,1.696,4.375,3.949,4.827
	c-0.413,0.113-0.848,0.174-1.297,0.174c-0.317,0-0.625-0.031-0.926-0.088c0.626,1.955,2.444,3.377,4.598,3.418
	c-1.685,1.32-3.807,2.107-6.113,2.107c-0.397,0-0.789-0.023-1.174-0.068c2.179,1.396,4.766,2.211,7.546,2.211
	c9.055,0,14.007-7.502,14.007-14.006c0-0.213-0.006-0.426-0.015-0.637C34.502,18.413,35.338,17.546,35.997,16.559z"/>
</svg>
